<svg width="24" height="24" viewBox="0 0 24 24" fill="none" xmlns="http://www.w3.org/2000/svg">
<mask id="mask0_47_1584" style="mask-type:alpha" maskUnits="userSpaceOnUse" x="0" y="0" width="24" height="24">
<rect width="24" height="24" fill="#D9D9D9"/>
</mask>
<g mask="url(#mask0_47_1584)">
<path d="M3.5502 12L10.9002 19.35C11.1502 19.6 11.271 19.8917 11.2627 20.225C11.2544 20.5583 11.1252 20.85 10.8752 21.1C10.6252 21.35 10.3335 21.475 10.0002 21.475C9.66686 21.475 9.3752 21.35 9.1252 21.1L1.4252 13.425C1.2252 13.225 1.0752 13 0.975195 12.75C0.875195 12.5 0.825195 12.25 0.825195 12C0.825195 11.75 0.875195 11.5 0.975195 11.25C1.0752 11 1.2252 10.775 1.4252 10.575L9.1252 2.875C9.3752 2.625 9.67103 2.50417 10.0127 2.5125C10.3544 2.52083 10.6502 2.65 10.9002 2.9C11.1502 3.15 11.2752 3.44167 11.2752 3.775C11.2752 4.10833 11.1502 4.4 10.9002 4.65L3.5502 12Z" fill="#0F0F0F"/>
</g>
</svg>
