<svg width="16" height="17" viewBox="0 0 16 17" fill="none" xmlns="http://www.w3.org/2000/svg">
<mask id="mask0_47_828" style="mask-type:alpha" maskUnits="userSpaceOnUse" x="0" y="0" width="16" height="17">
<rect y="0.5" width="16" height="16" fill="#D9D9D9"/>
</mask>
<g mask="url(#mask0_47_828)">
<path d="M0.666504 11.9666C0.666504 11.5888 0.763726 11.2416 0.958171 10.925C1.15262 10.6083 1.41095 10.3666 1.73317 10.2C2.42206 9.85551 3.12206 9.59718 3.83317 9.42496C4.54428 9.25274 5.2665 9.16663 5.99984 9.16663C6.73317 9.16663 7.45539 9.25274 8.1665 9.42496C8.87761 9.59718 9.57761 9.85551 10.2665 10.2C10.5887 10.3666 10.8471 10.6083 11.0415 10.925C11.2359 11.2416 11.3332 11.5888 11.3332 11.9666V12.5C11.3332 12.8666 11.2026 13.1805 10.9415 13.4416C10.6804 13.7027 10.3665 13.8333 9.99984 13.8333H1.99984C1.63317 13.8333 1.31928 13.7027 1.05817 13.4416C0.797059 13.1805 0.666504 12.8666 0.666504 12.5V11.9666ZM13.9998 13.8333H12.2998C12.4221 13.6333 12.5137 13.4194 12.5748 13.1916C12.6359 12.9638 12.6665 12.7333 12.6665 12.5V11.8333C12.6665 11.3444 12.5304 10.875 12.2582 10.425C11.9859 9.97496 11.5998 9.58885 11.0998 9.26663C11.6665 9.33329 12.1998 9.44718 12.6998 9.60829C13.1998 9.7694 13.6665 9.96663 14.0998 10.2C14.4998 10.4222 14.8054 10.6694 15.0165 10.9416C15.2276 11.2138 15.3332 11.5111 15.3332 11.8333V12.5C15.3332 12.8666 15.2026 13.1805 14.9415 13.4416C14.6804 13.7027 14.3665 13.8333 13.9998 13.8333ZM5.99984 8.49996C5.2665 8.49996 4.63873 8.23885 4.1165 7.71663C3.59428 7.1944 3.33317 6.56663 3.33317 5.83329C3.33317 5.09996 3.59428 4.47218 4.1165 3.94996C4.63873 3.42774 5.2665 3.16663 5.99984 3.16663C6.73317 3.16663 7.36095 3.42774 7.88317 3.94996C8.40539 4.47218 8.6665 5.09996 8.6665 5.83329C8.6665 6.56663 8.40539 7.1944 7.88317 7.71663C7.36095 8.23885 6.73317 8.49996 5.99984 8.49996ZM12.6665 5.83329C12.6665 6.56663 12.4054 7.1944 11.8832 7.71663C11.3609 8.23885 10.7332 8.49996 9.99984 8.49996C9.87761 8.49996 9.72206 8.48607 9.53317 8.45829C9.34428 8.43051 9.18873 8.39996 9.0665 8.36663C9.3665 8.01107 9.59706 7.61663 9.75817 7.18329C9.91928 6.74996 9.99984 6.29996 9.99984 5.83329C9.99984 5.36663 9.91928 4.91663 9.75817 4.48329C9.59706 4.04996 9.3665 3.65551 9.0665 3.29996C9.22206 3.2444 9.37761 3.20829 9.53317 3.19163C9.68873 3.17496 9.84428 3.16663 9.99984 3.16663C10.7332 3.16663 11.3609 3.42774 11.8832 3.94996C12.4054 4.47218 12.6665 5.09996 12.6665 5.83329ZM1.99984 12.5H9.99984V11.9666C9.99984 11.8444 9.96928 11.7333 9.90817 11.6333C9.84706 11.5333 9.7665 11.4555 9.6665 11.4C9.0665 11.1 8.46095 10.875 7.84984 10.725C7.23873 10.575 6.62206 10.5 5.99984 10.5C5.37761 10.5 4.76095 10.575 4.14984 10.725C3.53873 10.875 2.93317 11.1 2.33317 11.4C2.23317 11.4555 2.15261 11.5333 2.0915 11.6333C2.03039 11.7333 1.99984 11.8444 1.99984 11.9666V12.5ZM5.99984 7.16663C6.3665 7.16663 6.68039 7.03607 6.9415 6.77496C7.20261 6.51385 7.33317 6.19996 7.33317 5.83329C7.33317 5.46663 7.20261 5.15274 6.9415 4.89163C6.68039 4.63051 6.3665 4.49996 5.99984 4.49996C5.63317 4.49996 5.31928 4.63051 5.05817 4.89163C4.79706 5.15274 4.6665 5.46663 4.6665 5.83329C4.6665 6.19996 4.79706 6.51385 5.05817 6.77496C5.31928 7.03607 5.63317 7.16663 5.99984 7.16663Z" fill="#686868"/>
</g>
</svg>
