<svg width="16" height="16" viewBox="0 0 16 16" fill="none" xmlns="http://www.w3.org/2000/svg">
<mask id="mask0_47_1125" style="mask-type:alpha" maskUnits="userSpaceOnUse" x="0" y="0" width="16" height="16">
<rect width="16" height="16" fill="#D9D9D9"/>
</mask>
<g mask="url(#mask0_47_1125)">
<path d="M5.0835 4.26671L6.95016 1.85004C7.0835 1.67226 7.24183 1.54171 7.42516 1.45837C7.6085 1.37504 7.80016 1.33337 8.00016 1.33337C8.20016 1.33337 8.39183 1.37504 8.57516 1.45837C8.7585 1.54171 8.91683 1.67226 9.05016 1.85004L10.9168 4.26671L13.7502 5.21671C14.0391 5.3056 14.2668 5.46948 14.4335 5.70837C14.6002 5.94726 14.6835 6.21115 14.6835 6.50004C14.6835 6.63337 14.6641 6.76671 14.6252 6.90004C14.5863 7.03337 14.5224 7.16115 14.4335 7.28337L12.6002 9.88337L12.6668 12.6167C12.6779 13.0056 12.5502 13.3334 12.2835 13.6C12.0168 13.8667 11.7057 14 11.3502 14C11.3279 14 11.2057 13.9834 10.9835 13.95L8.00016 13.1167L5.01683 13.95C4.96127 13.9723 4.90016 13.9862 4.8335 13.9917C4.76683 13.9973 4.70572 14 4.65016 14C4.29461 14 3.9835 13.8667 3.71683 13.6C3.45016 13.3334 3.32238 13.0056 3.3335 12.6167L3.40016 9.86671L1.5835 7.28337C1.49461 7.16115 1.43072 7.03337 1.39183 6.90004C1.35294 6.76671 1.3335 6.63337 1.3335 6.50004C1.3335 6.22226 1.41405 5.96393 1.57516 5.72504C1.73627 5.48615 1.96127 5.31671 2.25016 5.21671L5.0835 4.26671Z" fill="#FFE837"/>
</g>
</svg>
