<svg width="16" height="16" viewBox="0 0 16 16" fill="none" xmlns="http://www.w3.org/2000/svg">
<mask id="mask0_47_1130" style="mask-type:alpha" maskUnits="userSpaceOnUse" x="0" y="0" width="16" height="16">
<rect width="16" height="16" fill="#D9D9D9"/>
</mask>
<g mask="url(#mask0_47_1130)">
<path d="M8.00008 14.2166C7.84453 14.2166 7.68897 14.1889 7.53341 14.1333C7.37786 14.0778 7.23897 13.9944 7.11675 13.8833C6.39453 13.2166 5.75564 12.5666 5.20008 11.9333C4.64453 11.3 4.18064 10.6861 3.80841 10.0916C3.43619 9.4972 3.15286 8.92498 2.95841 8.37498C2.76397 7.82498 2.66675 7.29998 2.66675 6.79998C2.66675 5.13331 3.20286 3.80554 4.27508 2.81665C5.3473 1.82776 6.58897 1.33331 8.00008 1.33331C9.41119 1.33331 10.6529 1.82776 11.7251 2.81665C12.7973 3.80554 13.3334 5.13331 13.3334 6.79998C13.3334 7.29998 13.2362 7.82498 13.0417 8.37498C12.8473 8.92498 12.564 9.4972 12.1917 10.0916C11.8195 10.6861 11.3556 11.3 10.8001 11.9333C10.2445 12.5666 9.60564 13.2166 8.88341 13.8833C8.76119 13.9944 8.6223 14.0778 8.46675 14.1333C8.31119 14.1889 8.15564 14.2166 8.00008 14.2166ZM8.00008 7.99998C8.36675 7.99998 8.68064 7.86942 8.94175 7.60831C9.20286 7.3472 9.33341 7.03331 9.33341 6.66665C9.33341 6.29998 9.20286 5.98609 8.94175 5.72498C8.68064 5.46387 8.36675 5.33331 8.00008 5.33331C7.63341 5.33331 7.31953 5.46387 7.05841 5.72498C6.7973 5.98609 6.66675 6.29998 6.66675 6.66665C6.66675 7.03331 6.7973 7.3472 7.05841 7.60831C7.31953 7.86942 7.63341 7.99998 8.00008 7.99998Z" fill="#1C1B1F"/>
</g>
</svg>
