<svg width="81" height="56" viewBox="0 0 81 56" fill="none" xmlns="http://www.w3.org/2000/svg">
<path d="M30.3 12H26.55V15.75H25.3C25.3 17.4167 25.3 18.25 25.3 18.25H26.55V22H25.3V23.25H17.8V22H16.55V18.25H17.8V17H24.05C24.05 10.3333 24.05 7 24.05 7H22.8V5.75H26.55C26.55 9.08333 26.55 10.75 26.55 10.75H30.3V12ZM19.05 22H24.05V18.25H19.05V22ZM12.8 8.25H11.55V7H15.3C15.3 8.66667 15.3 9.5 15.3 9.5H19.05V8.25H17.8V7H21.55C21.55 12 21.55 14.5 21.55 14.5H12.8V8.25ZM15.3 13.25H19.05C19.05 11.5833 19.05 10.75 19.05 10.75H15.3C15.3 12.4167 15.3 13.25 15.3 13.25ZM46.75 23.25H36.75V22H35.5C35.5 20.3333 35.5 19.5 35.5 19.5H44.25V18.25H35.5V17H44.25C44.25 10.3333 44.25 7 44.25 7H43V5.75H46.75C46.75 9.08333 46.75 10.75 46.75 10.75H50.5V12H46.75V15.75H45.5V17H46.75V20.75H38V22H46.75V23.25ZM41.75 15.75H34.25V14.5H33V8.25H31.75V7H40.5V8.25H35.5C35.5 9.91667 35.5 10.75 35.5 10.75H40.5V12H35.5C35.5 13.6667 35.5 14.5 35.5 14.5H41.75V15.75ZM66.95 23.25H55.7V22H54.45C54.45 20.3333 54.45 19.5 54.45 19.5H64.45V18.25H54.45V17H59.45C59.45 15.3333 59.45 14.5 59.45 14.5H51.95V13.25H54.45V12H56.95V13.25H65.7V12H68.2V13.25H69.45V14.5H61.95V15.75H60.7V17H66.95V20.75H56.95V22H66.95V23.25ZM66.95 8.25H63.2V9.5H64.45V10.75H65.7V12H63.2V10.75H61.95V9.5H60.7V10.75H59.45V12H56.95V10.75H58.2V9.5H59.45V8.25H54.45V7H59.45V5.75H63.2V7H66.95V8.25Z" fill="white"/>
<path d="M17.7 51.25H8.95V50H7.7V46.25H6.45V45H10.2C10.2 48.3333 10.2 50 10.2 50H17.7V51.25ZM16.45 43.75V45H15.2C15.2 38.3333 15.2 35 15.2 35H13.95V33.75H17.7C17.7 40.4167 17.7 43.75 17.7 43.75H16.45ZM3.95 41.25H2.7C2.7 37.9167 2.7 36.25 2.7 36.25H3.95V35H10.2V36.25H11.45C11.45 39.5833 11.45 41.25 11.45 41.25H10.2V42.5H3.95V41.25ZM5.2 41.25H8.95C8.95 37.9167 8.95 36.25 8.95 36.25H5.2C5.2 39.5833 5.2 41.25 5.2 41.25ZM32.9 45H30.4V43.75H29.15V42.5H27.9V41.25H26.65C26.65 42.9167 26.65 43.75 26.65 43.75H24.15V45H21.65V43.75H24.15V42.5H25.4C25.4 40.8333 25.4 40 25.4 40H26.65V36.25H25.4V35H29.15V41.25H30.4V42.5H31.65V43.75H32.9V45ZM40.4 41.25H36.65V50H35.4V51.25H34.15V35H32.9V33.75H36.65V40H40.4V41.25ZM56.85 50V51.25H55.6V35H54.35V33.75H58.1V50H56.85ZM44.35 43.75H43.1V42.5H41.85V38.75H43.1V37.5H44.35V36.25H49.35V37.5H50.6V38.75H51.85V42.5H50.6V43.75H49.35V45H44.35V43.75ZM45.6 43.75H48.1V42.5H49.35V38.75H48.1V37.5H45.6V38.75H44.35V42.5H45.6V43.75ZM79.55 47.5H62.05V46.25H79.55V47.5ZM77.05 41.25H65.8V40H64.55V36.25H63.3V35H77.05V36.25H67.05V37.5H77.05V38.75H67.05V40H77.05V41.25Z" fill="white"/>
</svg>
