<svg width="16" height="17" viewBox="0 0 16 17" fill="none" xmlns="http://www.w3.org/2000/svg">
<mask id="mask0_47_823" style="mask-type:alpha" maskUnits="userSpaceOnUse" x="0" y="0" width="16" height="17">
<rect y="0.5" width="16" height="16" fill="#D9D9D9"/>
</mask>
<g mask="url(#mask0_47_823)">
<path d="M6.66667 2.49996C6.47778 2.49996 6.31944 2.43607 6.19167 2.30829C6.06389 2.18051 6 2.02218 6 1.83329C6 1.6444 6.06389 1.48607 6.19167 1.35829C6.31944 1.23051 6.47778 1.16663 6.66667 1.16663H9.33333C9.52222 1.16663 9.68056 1.23051 9.80833 1.35829C9.93611 1.48607 10 1.6444 10 1.83329C10 2.02218 9.93611 2.18051 9.80833 2.30829C9.68056 2.43607 9.52222 2.49996 9.33333 2.49996H6.66667ZM8 9.83329C8.18889 9.83329 8.34722 9.7694 8.475 9.64163C8.60278 9.51385 8.66667 9.35552 8.66667 9.16663V6.49996C8.66667 6.31107 8.60278 6.15274 8.475 6.02496C8.34722 5.89718 8.18889 5.83329 8 5.83329C7.81111 5.83329 7.65278 5.89718 7.525 6.02496C7.39722 6.15274 7.33333 6.31107 7.33333 6.49996V9.16663C7.33333 9.35552 7.39722 9.51385 7.525 9.64163C7.65278 9.7694 7.81111 9.83329 8 9.83329ZM8 15.1666C7.17778 15.1666 6.40278 15.0083 5.675 14.6916C4.94722 14.375 4.31111 13.9444 3.76667 13.4C3.22222 12.8555 2.79167 12.2194 2.475 11.4916C2.15833 10.7638 2 9.98885 2 9.16663C2 8.3444 2.15833 7.5694 2.475 6.84163C2.79167 6.11385 3.22222 5.47774 3.76667 4.93329C4.31111 4.38885 4.94722 3.95829 5.675 3.64163C6.40278 3.32496 7.17778 3.16663 8 3.16663C8.68889 3.16663 9.35 3.27774 9.98333 3.49996C10.6167 3.72218 11.2111 4.0444 11.7667 4.46663L12.2333 3.99996C12.3556 3.87774 12.5111 3.81663 12.7 3.81663C12.8889 3.81663 13.0444 3.87774 13.1667 3.99996C13.2889 4.12218 13.35 4.27774 13.35 4.46663C13.35 4.65552 13.2889 4.81107 13.1667 4.93329L12.7 5.39996C13.1222 5.95551 13.4444 6.54996 13.6667 7.18329C13.8889 7.81663 14 8.47774 14 9.16663C14 9.98885 13.8417 10.7638 13.525 11.4916C13.2083 12.2194 12.7778 12.8555 12.2333 13.4C11.6889 13.9444 11.0528 14.375 10.325 14.6916C9.59722 15.0083 8.82222 15.1666 8 15.1666ZM8 13.8333C9.28889 13.8333 10.3889 13.3777 11.3 12.4666C12.2111 11.5555 12.6667 10.4555 12.6667 9.16663C12.6667 7.87774 12.2111 6.77774 11.3 5.86663C10.3889 4.95552 9.28889 4.49996 8 4.49996C6.71111 4.49996 5.61111 4.95552 4.7 5.86663C3.78889 6.77774 3.33333 7.87774 3.33333 9.16663C3.33333 10.4555 3.78889 11.5555 4.7 12.4666C5.61111 13.3777 6.71111 13.8333 8 13.8333Z" fill="#686868"/>
</g>
</svg>
